<svg width="17" height="17" viewBox="0 0 17 17" fill="none" xmlns="http://www.w3.org/2000/svg">
<path fill-rule="evenodd" clip-rule="evenodd" d="M8.5 16C12.6421 16 16 12.6421 16 8.5C16 4.35786 12.6421 1 8.5 1C4.35786 1 1 4.35786 1 8.5C1 12.6421 4.35786 16 8.5 16Z" stroke="white" stroke-linecap="round" stroke-linejoin="round"/>
<path d="M6.69267 15.7806C5.678 14.2926 5 11.5886 5 8.4999C5 5.41124 5.678 2.70724 6.69267 1.21924" stroke="white" stroke-linecap="round" stroke-linejoin="round"/>
<path d="M1 8.5H16" stroke="white" stroke-linecap="round" stroke-linejoin="round"/>
<path d="M2.1543 12.5H14.8449" stroke="white" stroke-linecap="round" stroke-linejoin="round"/>
<path d="M2.1543 4.5H14.8449" stroke="white" stroke-linecap="round" stroke-linejoin="round"/>
<path d="M10.3076 1.21924C11.3223 2.70724 12.0003 5.41124 12.0003 8.4999C12.0003 11.5886 11.3223 14.2926 10.3076 15.7806" stroke="white" stroke-linecap="round" stroke-linejoin="round"/>
</svg>
