<svg width="16" height="20" viewBox="0 0 16 20" fill="none" xmlns="http://www.w3.org/2000/svg">
<path d="M7.75851 4.41176C9.01879 4.41176 10.0405 3.42416 10.0405 2.20588C10.0405 0.987607 9.01879 0 7.75851 0C6.49822 0 5.47656 0.987607 5.47656 2.20588C5.47656 3.42416 6.49822 4.41176 7.75851 4.41176Z" fill="white"/>
<path d="M14.0342 6.17651H1.48304C0.659129 6.17651 0 6.83233 0 7.62316C0 8.43328 0.659129 9.0698 1.48304 9.0698H2.61746C3.72203 9.0698 4.61746 9.96523 4.61746 11.0698V12.7572C4.61746 12.7958 4.61746 12.8537 4.61746 12.8923V18.1966C4.61746 18.8524 5.1942 19.4118 5.91512 19.4118C6.61544 19.4118 7.21278 18.8717 7.21278 18.1966V13.4355C7.21278 13.1568 7.43872 12.9308 7.71742 12.9308C7.99613 12.9308 8.22207 13.1568 8.22207 13.4355V18.1966C8.22207 18.8524 8.79881 19.4118 9.51973 19.4118C10.2201 19.4118 10.8174 18.8717 10.8174 18.1966V11.0698C10.8174 9.96523 11.7128 9.0698 12.8174 9.0698H14.0342C14.8581 9.0698 15.5172 8.41399 15.5172 7.62316C15.5172 6.83233 14.8581 6.17651 14.0342 6.17651Z" fill="white"/>
</svg>
