<svg width="22" height="22" viewBox="0 0 22 22" fill="none" xmlns="http://www.w3.org/2000/svg">
<path fill-rule="evenodd" clip-rule="evenodd" d="M11 0C4.92487 0 0 4.92487 0 11C0 17.0751 4.92487 22 11 22C17.0751 22 22 17.0751 22 11C22 4.92487 17.0751 0 11 0ZM8.58147 5.16914C9.20725 5.14066 9.40721 5.1337 11.0005 5.1337H10.9987C12.5925 5.1337 12.7917 5.14066 13.4175 5.16914C14.042 5.19774 14.4686 5.29662 14.8426 5.4417C15.2288 5.59143 15.5552 5.79187 15.8815 6.11821C16.2078 6.4443 16.4083 6.77162 16.5586 7.15748C16.7029 7.53051 16.8019 7.95682 16.8312 8.58139C16.8593 9.20717 16.8666 9.40713 16.8666 11.0004C16.8666 12.5938 16.8593 12.7932 16.8312 13.419C16.8019 14.0433 16.7029 14.4698 16.5586 14.8429C16.4083 15.2287 16.2078 15.556 15.8815 15.8821C15.5555 16.2084 15.2287 16.4093 14.843 16.5592C14.4697 16.7043 14.0429 16.8031 13.4183 16.8317C12.7926 16.8602 12.5932 16.8672 10.9998 16.8672C9.4066 16.8672 9.20677 16.8602 8.58098 16.8317C7.95654 16.8031 7.5301 16.7043 7.15683 16.5592C6.77122 16.4093 6.4439 16.2084 6.11793 15.8821C5.79172 15.556 5.59127 15.2287 5.4413 14.8428C5.29635 14.4698 5.19747 14.0434 5.16875 13.4189C5.14039 12.7931 5.1333 12.5938 5.1333 11.0004C5.1333 9.40713 5.14063 9.20705 5.16862 8.58126C5.19673 7.95695 5.29574 7.53051 5.44118 7.15736C5.59152 6.77162 5.79196 6.4443 6.1183 6.11821C6.44439 5.792 6.77171 5.59155 7.15757 5.4417C7.53059 5.29662 7.95691 5.19774 8.58147 5.16914Z" fill="white"/>
<path fill-rule="evenodd" clip-rule="evenodd" d="M10.4742 6.19092C10.5764 6.19076 10.6864 6.19081 10.805 6.19086L11.0005 6.19092C12.567 6.19092 12.7526 6.19654 13.3712 6.22465C13.9432 6.25081 14.2536 6.34639 14.4604 6.42669C14.7342 6.53302 14.9294 6.66014 15.1346 6.86547C15.34 7.07081 15.4671 7.26637 15.5736 7.54015C15.654 7.74671 15.7497 8.05716 15.7757 8.62916C15.8038 9.24762 15.8099 9.4334 15.8099 10.9991C15.8099 12.5648 15.8038 12.7506 15.7757 13.369C15.7495 13.941 15.654 14.2515 15.5736 14.458C15.4673 14.7318 15.34 14.9267 15.1346 15.132C14.9293 15.3373 14.7343 15.4644 14.4604 15.5707C14.2539 15.6514 13.9432 15.7467 13.3712 15.7729C12.7527 15.801 12.567 15.8071 11.0005 15.8071C9.434 15.8071 9.24834 15.801 8.62989 15.7729C8.05788 15.7465 7.74743 15.6509 7.54051 15.5706C7.26673 15.4643 7.07117 15.3372 6.86584 15.1318C6.6605 14.9265 6.53339 14.7314 6.42681 14.4575C6.34651 14.251 6.25081 13.9405 6.22477 13.3685C6.19666 12.7501 6.19104 12.5643 6.19104 10.9976C6.19104 9.43095 6.19666 9.24615 6.22477 8.6277C6.25093 8.05569 6.34651 7.74524 6.42681 7.53844C6.53314 7.26466 6.6605 7.0691 6.86584 6.86376C7.07117 6.65843 7.26673 6.53131 7.54051 6.42473C7.74731 6.34407 8.05788 6.24873 8.62989 6.22245C9.17109 6.19801 9.38083 6.19068 10.4742 6.18945V6.19092ZM14.1322 7.16534C13.7436 7.16534 13.4282 7.48038 13.4282 7.86924C13.4282 8.25799 13.7436 8.57339 14.1322 8.57339C14.5209 8.57339 14.8362 8.25799 14.8362 7.86924C14.8362 7.4805 14.5209 7.1651 14.1322 7.1651V7.16534ZM7.98767 11.0006C7.98767 9.33685 9.33659 7.98789 11.0004 7.98782C12.6642 7.98782 14.0128 9.33681 14.0128 11.0006C14.0128 12.6645 12.6643 14.0128 11.0005 14.0128C9.33665 14.0128 7.98767 12.6645 7.98767 11.0006Z" fill="white"/>
<path fill-rule="evenodd" clip-rule="evenodd" d="M11.0005 9.04443C12.0805 9.04443 12.9561 9.91993 12.9561 11C12.9561 12.08 12.0805 12.9556 11.0005 12.9556C9.92041 12.9556 9.04492 12.08 9.04492 11C9.04492 9.91993 9.92041 9.04443 11.0005 9.04443V9.04443Z" fill="white"/>
</svg>
