<svg width="142" height="16" viewBox="0 0 142 16" fill="none" xmlns="http://www.w3.org/2000/svg">
<g clip-path="url(#clip0)">
<path d="M4.20895 11.9775C4.20895 12.6965 4.14711 13.1627 4.02345 13.3719C3.90862 13.5723 3.6878 13.69 3.45372 13.6856C3.1799 13.6812 2.9149 13.6028 2.68083 13.4677C2.31426 13.2368 1.98743 12.9492 1.71361 12.6137L0 14.2041C0.962802 15.3893 2.1376 15.9862 3.51555 15.9862C4.12945 15.9993 4.73009 15.8337 5.24683 15.5113C5.7194 15.215 6.08155 14.7749 6.28029 14.2608C6.49229 13.7379 6.59828 12.8229 6.59828 11.52V3.3588H4.21336V11.9775H4.20895ZM7.39767 15.6769H9.86651L10.8823 13.1366H15.9746L16.9506 15.6769H19.4194L14.6231 3.3588H12.2161L7.39767 15.6769ZM15.0957 10.8534H11.7568L13.4306 6.62242L15.0957 10.8534ZM10.6659 0.352267C10.4318 0.574489 10.3037 0.8795 10.3082 1.19758C10.3082 1.52002 10.4407 1.82939 10.6791 2.05161C11.1517 2.5222 11.9246 2.5222 12.3972 2.05597C12.3972 2.05597 12.3972 2.05597 12.4016 2.05161C12.6357 1.82939 12.7637 1.52002 12.7593 1.19758C12.7637 0.8795 12.6357 0.574489 12.4016 0.352267C11.9246 -0.118321 11.1561 -0.118321 10.6791 0.34791C10.6791 0.34791 10.6791 0.34791 10.6747 0.352267H10.6659ZM14.4244 0.352267C14.1903 0.574489 14.0622 0.8795 14.0666 1.19758C14.0666 1.52002 14.1991 1.82939 14.4376 2.05161C14.9102 2.5222 15.6787 2.53092 16.1556 2.06904C16.1601 2.06468 16.1645 2.06033 16.1733 2.05161C16.4074 1.82939 16.5355 1.52002 16.531 1.19758C16.5355 0.8795 16.4074 0.574489 16.1733 0.352267C15.7007 -0.118321 14.9278 -0.118321 14.4553 0.34791C14.4553 0.34791 14.4553 0.34791 14.4509 0.352267H14.4244ZM20.3822 15.6769H22.7583V10.4612H22.9747L25.7837 15.6812H28.3806L25.4259 10.2041C26.137 9.98189 26.7553 9.54181 27.2014 8.95357C27.6121 8.35662 27.8197 7.64203 27.7932 6.91871C27.8064 6.22155 27.6209 5.53309 27.2544 4.93179C26.9275 4.39148 26.4329 3.96447 25.8411 3.72046C25.2537 3.47645 24.26 3.3588 22.8952 3.3588H20.3822V15.6769V15.6769ZM22.7583 5.64638H23.412C23.8492 5.6246 24.2865 5.66817 24.7149 5.77274C24.9445 5.85553 25.1433 6.00368 25.2802 6.19976C25.4259 6.40455 25.4966 6.65292 25.4922 6.90128C25.5275 7.27601 25.3685 7.64203 25.0638 7.87732C24.7767 8.0734 24.26 8.16926 23.5047 8.16926H22.7628V5.64638H22.7583ZM29.2683 15.6769H31.6444V7.5941L36.9795 15.6769H39.2805V3.3588H36.9045V11.4503L31.5472 3.3588H29.2639V15.6769H29.2683ZM44.5495 15.6769H46.8416L51.3421 3.3588H48.8997L45.7154 12.1039L42.5709 3.3588H40.1285L44.5583 15.6769H44.5495ZM49.4606 15.6769H51.9471L52.9629 13.1366H58.0552L59.0312 15.6769H61.5001L56.6949 3.3588H54.2879L49.4606 15.6769ZM57.1586 10.8534H53.8197L55.4936 6.62242L57.1586 10.8534ZM52.7289 0.352267C52.4948 0.574489 52.3667 0.8795 52.3755 1.19758C52.3711 1.52002 52.4992 1.82503 52.7289 2.05161C52.9585 2.28255 53.2721 2.40455 53.5989 2.39584C53.9257 2.40455 54.2481 2.28255 54.4778 2.05161C54.7119 1.82939 54.84 1.52002 54.8311 1.19758C54.8355 0.8795 54.7075 0.574489 54.4778 0.352267C54.2481 0.12133 53.9346 -0.00503143 53.6122 -0.000674129C53.2898 -0.00503143 52.9806 0.12133 52.7554 0.352267H52.7289ZM56.4873 0.352267C56.2532 0.574489 56.1252 0.8795 56.1296 1.19758C56.1252 1.52002 56.2532 1.82503 56.4873 2.05161C56.9599 2.5222 57.7328 2.5222 58.2053 2.05597C58.2053 2.05597 58.2053 2.05597 58.2098 2.05161C58.4527 1.83375 58.5896 1.52438 58.594 1.19758C58.5984 0.8795 58.4703 0.574489 58.2363 0.352267C57.7637 -0.118321 56.9908 -0.118321 56.5182 0.34791C56.5182 0.34791 56.5182 0.34791 56.5138 0.352267H56.4873ZM70.7703 3.64638C69.8075 3.24551 68.7697 3.04072 67.7229 3.04943C65.7929 2.98407 63.9336 3.77275 62.6572 5.20194C61.584 6.36534 60.9966 7.88603 61.0187 9.45466C61.0098 10.6224 61.319 11.7684 61.9064 12.7793C62.4673 13.7771 63.302 14.6006 64.3134 15.154C65.3822 15.7248 66.5835 16.0124 67.7936 15.9862C68.8977 16.0124 69.9886 15.7466 70.9603 15.2237C71.8789 14.6921 72.6341 13.9296 73.1509 13.0146C73.7073 12.0865 73.9988 11.0276 73.9988 9.95139L73.9812 9.42852H67.7009V11.6333H71.318C71.0353 12.2869 70.5584 12.8446 69.9533 13.2324C69.3217 13.5897 68.6018 13.764 67.8775 13.7422C66.6851 13.7684 65.5368 13.3196 64.6888 12.4917C63.8452 11.7074 63.3771 10.6137 63.3992 9.47209C63.3815 8.36534 63.832 7.30216 64.6446 6.53963C65.4661 5.74224 66.5791 5.30651 67.7318 5.33266C69.1495 5.33701 70.5009 5.93832 71.4372 6.99279L73.1111 5.3588C72.4619 4.62678 71.6625 4.03854 70.7703 3.63331V3.64638ZM80.2129 3.47645C79.6608 3.19322 79.0513 3.04943 78.433 3.04943C77.532 3.02765 76.662 3.35444 76.0039 3.96011C75.3724 4.51349 75.0102 5.31087 75.0146 6.14747C75.0323 6.78799 75.2399 7.40673 75.6109 7.92961C76.0083 8.5222 76.8872 9.36752 78.2475 10.4612C78.7554 10.8403 79.2192 11.2673 79.6343 11.7422C79.8286 11.9819 79.939 12.2738 79.9523 12.5788C79.9479 12.8969 79.7933 13.1976 79.5327 13.3893C79.2457 13.629 78.8791 13.7553 78.5037 13.7422C77.722 13.7422 77.033 13.1976 76.4323 12.1083L74.4272 13.3283C74.8026 14.1388 75.39 14.8359 76.1232 15.3501C76.8166 15.7902 77.6248 16.0168 78.4463 15.995C79.4665 16.0385 80.4602 15.6812 81.2154 15.0059C81.9176 14.361 82.3019 13.4503 82.2754 12.5091C82.2798 12.0124 82.1782 11.5244 81.9751 11.0712C81.7145 10.5571 81.37 10.0908 80.9504 9.69431C80.7561 9.49823 80.2085 9.02765 79.3031 8.27819C78.6848 7.79453 78.1018 7.26294 77.563 6.69649C77.426 6.53091 77.351 6.32176 77.351 6.10826C77.3598 5.88603 77.4658 5.68124 77.6469 5.55052C77.8633 5.38059 78.1327 5.29344 78.4109 5.30216C79.0425 5.30216 79.6785 5.72481 80.31 6.57449L82.0722 5.04508C81.5643 4.41327 80.946 3.88604 80.2394 3.48516L80.2129 3.47645ZM83.5783 15.6769H85.8969L87.2661 7.89475L89.8939 15.6769H91.9917L94.6461 7.89475L95.9843 15.6769H98.2809L96.183 3.3588H93.8688L90.9494 11.947L88.0522 3.3588H85.7379L83.5783 15.6769ZM99.3938 10.7008C99.3938 12.1562 99.5396 13.1976 99.8266 13.825C100.14 14.4699 100.639 15.0059 101.262 15.3675C101.973 15.7902 102.795 16.008 103.625 15.9906C104.248 16.0037 104.861 15.8991 105.44 15.6769C105.97 15.4547 106.443 15.1148 106.822 14.6834C107.193 14.2869 107.472 13.812 107.631 13.2934C107.807 12.4438 107.878 11.581 107.843 10.7139V3.3588H105.458V11.0276C105.489 11.5897 105.431 12.1562 105.285 12.6965C105.162 13.0015 104.941 13.2542 104.654 13.4198C104.327 13.6159 103.952 13.7161 103.572 13.703C103.219 13.7117 102.865 13.6246 102.56 13.4503C102.295 13.2891 102.088 13.0538 101.964 12.7706C101.818 12.3 101.757 11.8076 101.783 11.3152V3.3588H99.3982L99.3938 10.7008ZM114.626 3.47645C114.074 3.19322 113.465 3.04943 112.842 3.04943C111.941 3.02329 111.067 3.35009 110.409 3.96011C109.777 4.51349 109.415 5.31087 109.419 6.14747C109.437 6.78799 109.645 7.40673 110.016 7.92961C110.413 8.5222 111.292 9.36752 112.652 10.4612C113.16 10.8403 113.624 11.2673 114.035 11.7422C114.229 11.9775 114.344 12.2738 114.353 12.5788C114.348 12.8969 114.194 13.1976 113.933 13.3893C113.646 13.629 113.279 13.751 112.904 13.7422C112.122 13.7422 111.433 13.1976 110.833 12.1083L108.836 13.3283C109.212 14.1388 109.795 14.8359 110.528 15.3501C111.221 15.7902 112.029 16.0168 112.855 15.995C113.876 16.0385 114.869 15.6812 115.625 15.0059C116.327 14.361 116.711 13.4503 116.685 12.5091C116.689 12.0124 116.587 11.5244 116.384 11.0712C116.124 10.5571 115.779 10.0908 115.36 9.69431C115.165 9.49823 114.618 9.02765 113.712 8.27819C113.094 7.79453 112.511 7.26294 111.968 6.69649C111.835 6.53091 111.76 6.32176 111.756 6.10826C111.764 5.88603 111.875 5.68124 112.052 5.55052C112.268 5.38059 112.542 5.29344 112.816 5.30216C113.447 5.30216 114.083 5.72481 114.715 6.57449L116.477 5.04508C115.973 4.41327 115.351 3.88604 114.648 3.48516L114.626 3.47645ZM118.257 15.6769H125.071V13.3719H120.62V10.1344H125.071V7.87732H120.62V5.65074H125.071V3.3588H118.261V15.6769H118.257ZM126.949 15.6769H133.763V13.3719H129.316V10.1344H133.772V7.87732H129.316V5.65074H133.772V3.3588H126.971V15.6769H126.949ZM135.097 5.6856H137.314V15.6812H139.725V5.6856H142V3.37623H135.106V5.6856H135.097Z" fill="white"/>
</g>
<defs>
<clipPath id="clip0">
<rect width="142" height="16" fill="white"/>
</clipPath>
</defs>
</svg>
