<svg width="85" height="101" viewBox="0 0 85 101" fill="none" xmlns="http://www.w3.org/2000/svg">
<g clip-path="url(#clip0)">
<path d="M30.1832 28.7386L30.4849 29.0403H39.6119L39.9136 28.7386V14.7087L40.2153 14.407H43.9868L44.2885 14.7087V28.7386L44.5902 29.0403H53.7172L54.0189 28.7386V20.894L54.3206 20.5922H58.0921L58.3938 20.894V28.6632L58.6955 28.9649H66.6156L66.9173 29.2666V33.0381L66.6156 33.3398H58.6955L58.3938 33.6415V41.4108L58.0921 41.7125H54.396L54.0943 41.4108V33.6415L53.7926 33.3398H44.5902L44.2885 33.6415V47.6714L43.9868 47.9731H40.2153L39.9136 47.6714V33.6415L39.6119 33.3398H30.4849L30.1832 33.6415V41.4108L29.8815 41.7125H26.11L25.8083 41.4108V33.6415L25.5066 33.3398H17.6619L17.3602 33.0381V29.2666L17.6619 28.9649H25.582L25.8837 28.6632V20.894L26.1854 20.5922H29.9569L30.2586 20.8185V28.7386H30.1832ZM42.1765 0C24.9786 0 11.0995 13.879 11.0995 31.0769C11.0995 48.2748 24.9786 62.1539 42.1765 62.1539C59.3744 62.1539 73.2534 48.2748 73.2534 31.0769C73.2534 13.879 59.2989 0 42.1765 0Z" fill="#F37341"/>
</g>
<g clip-path="url(#clip1)">
<path d="M20.5227 80.426V76.9593L20.1468 76.5825H16.9895L16.6136 76.9593L10.3741 94.0668H9.99822L3.8339 76.9593L3.45803 76.5825H0.375873L0 76.9593V80.426L7.66781 100.623L8.04368 101H12.5542L12.93 100.623L20.5227 80.426ZM42.3233 83.8927C42.3233 78.9941 38.8653 76.5825 33.9789 76.5825H22.5524L22.1765 76.9593V100.623L22.5524 101H26.687L27.0628 100.623V91.5798L27.4387 91.203H30.8968L31.5733 91.5798L38.4894 100.623L39.166 101H41.346L41.7219 100.623V97.1566L37.2114 91.203V90.9015C39.9177 90.1479 42.3233 87.7363 42.3233 83.8927ZM37.5121 83.8927C37.5121 86.3044 36.159 87.058 34.0541 87.058H27.4387L27.0628 86.6812V81.1043L27.4387 80.7275H34.0541C36.0838 80.7275 37.5121 81.4811 37.5121 83.8927ZM64.4246 100.623V97.1566L56.3809 76.9593L56.0802 76.5825H51.5698L51.1939 76.9593L43.2254 97.1566V100.623L43.6013 101H46.7586L47.1345 100.623L48.8635 96.1016L49.5401 95.7247H58.2603L58.9369 96.1016L60.6659 100.623L61.0418 101H64.1991L64.4246 100.623ZM57.0575 91.203L56.6816 91.5798H50.7428L50.367 91.203L53.5243 82.8377H53.9002L57.0575 91.203ZM84.7218 100.623V97.1566L77.0539 87.7363V87.3594L83.97 80.426V76.9593L83.7445 76.5825H81.9403L81.2637 76.9593L71.1903 87.058H70.8145V76.9593L70.5138 76.5825H66.3792L66.0033 76.9593V100.623L66.3792 101H70.5138L70.8896 100.623V93.6899L73.2952 91.2783H73.6711L81.3389 100.699L82.0155 101.076H84.4211L84.7218 100.623Z" fill="#F37341"/>
</g>
<defs>
<clipPath id="clip0">
<rect x="11.0995" width="62.1539" height="62.1539" fill="white"/>
</clipPath>
<clipPath id="clip1">
<rect y="76.5825" width="84.7218" height="24.4177" fill="white"/>
</clipPath>
</defs>
</svg>
