<svg width="135" height="81" viewBox="0 0 135 81" fill="none" xmlns="http://www.w3.org/2000/svg">
<path d="M10.3444 61.9237V52.8398H10.3123L6.89897 57.3576H6.63393L3.22058 52.8398H3.18846V61.9237H1.59824V50.2512H3.09208L6.77047 55.0424L10.4569 50.2512H11.9347V61.9237H10.3444Z" fill="white"/>
<path d="M18.8417 56.9796H22.2872L20.4962 52.7512L18.8417 56.9796ZM24.4155 61.9236L22.9377 58.4829H18.2233L16.8258 61.9236H15.2035L19.9661 50.1787H21.0905L26.0459 61.9236H24.4155Z" fill="white"/>
<path d="M30.9772 51.6902H31.9971C33.5392 51.6902 34.1576 52.3574 34.1737 53.4507C34.1897 54.4234 33.6998 55.3478 31.9971 55.3478H30.9772V51.6902ZM29.3869 50.2512V61.9237H30.9772V56.8592H31.6438C32.4549 56.8592 33.1215 57.1325 34.5833 59.5281L36.045 61.9237H37.9484C37.1854 60.8143 36.9124 60.4204 36.4385 59.6085C35.5952 58.1534 34.9768 57.0762 33.9648 56.3688C35.1535 55.8704 35.8201 54.8655 35.8201 53.5069C35.8201 51.4892 34.4226 50.2351 32.1819 50.2351H29.3869V50.2512Z" fill="white"/>
<path d="M42.8717 50.2512H41.2815V61.9237H42.8717V50.2512Z" fill="white"/>
<path d="M57.6816 61.9237H56.3163L48.9033 52.9362V61.9237H47.4094V50.2512H48.6784L56.1878 59.2869V50.2512H57.6816V61.9237Z" fill="white"/>
<path d="M72.5156 61.9237H70.9254V52.8398H70.8933L67.4799 57.3576H67.2229L63.8096 52.8398H63.7774V61.9237H62.1872V50.2512H63.6811L67.3514 55.0424L71.0378 50.2512H72.5156V61.9237Z" fill="white"/>
<path d="M86.3136 57.3415C86.3136 60.2034 84.6912 62.0845 81.3903 62.0845C79.0532 62.0845 76.7723 60.6938 76.7723 57.5103V50.2512H78.3625V57.1486C78.3625 58.467 78.5231 59.0136 79.0291 59.5442C79.6636 60.2114 80.4587 60.533 81.4144 60.533C82.6352 60.533 83.5106 60.123 84.0166 59.5924C84.5868 58.9895 84.7153 58.1374 84.7153 57.0441V50.2512H86.3056V57.3415H86.3136Z" fill="white"/>
<path d="M95.871 52.8155C94.9313 51.875 94.0157 51.6016 93.2688 51.6016C92.2488 51.6016 91.5099 52.1644 91.5099 52.9843C91.5099 55.2272 96.3047 55.195 96.3047 58.909C96.3047 60.7419 94.9875 62.0764 93.2045 62.0764C91.9998 62.0764 91.028 61.7307 90.1044 60.9991V58.8769C90.9156 59.9702 91.9436 60.5731 93.0279 60.5731C94.2647 60.5731 94.8349 59.7531 94.8349 59.1019C94.8349 56.6903 90.0402 56.417 90.0402 53.2094C90.0402 51.3122 91.3734 50.0903 93.4053 50.0903C94.2486 50.0903 95.0919 50.3637 95.879 50.9103V52.8155H95.871Z" fill="white"/>
<path d="M106.432 51.7545H101.742V55.2836H106.272V56.7949H101.742V60.4204H106.585V61.9237H100.144V50.2512H106.432V51.7545Z" fill="white"/>
<path d="M119.676 57.3415C119.676 60.2034 118.054 62.0845 114.753 62.0845C112.416 62.0845 110.135 60.6938 110.135 57.5103V50.2512H111.725V57.1486C111.725 58.467 111.886 59.0136 112.392 59.5442C113.026 60.2114 113.821 60.533 114.777 60.533C115.998 60.533 116.873 60.123 117.379 59.5924C117.949 58.9895 118.078 58.1374 118.078 57.0441V50.2512H119.668V57.3415H119.676Z" fill="white"/>
<path d="M134.277 61.9237H132.679V52.8398H132.647L129.233 57.3576H128.976L125.563 52.8398H125.531V61.9237H123.941V50.2512H125.435L129.105 55.0424L132.791 50.2512H134.277V61.9237Z" fill="white"/>
<path d="M76.1057 38.434V24.9929H69.6966C71.584 25.2341 72.0819 26.5444 72.0819 28.4095V37.7426C72.3389 37.7989 72.5959 37.8552 72.8369 37.9114C73.9372 38.1687 74.901 38.3857 76.1057 38.434Z" fill="white"/>
<path d="M63.2795 24.9929H57.3443C59.2316 25.2341 59.2557 26.5364 59.2557 27.5654V38.5224C60.4203 38.032 61.7776 37.606 63.2795 37.3568V24.9929Z" fill="white"/>
<path d="M55.1357 42.0595C55.1357 42.0595 59.6252 38.0642 66.0825 38.0642C71.6964 38.0642 73.1019 39.3987 76.6277 39.3987C79.005 39.3987 79.8001 38.5867 79.8001 38.5867C79.8001 38.5867 77.8565 42.8474 71.2708 42.8474C63.8337 42.8474 64.1067 39.5916 55.1357 42.0595Z" fill="white"/>
<path d="M67.6968 19.0119L54.7501 23.2484L54.9268 23.8433C54.9268 23.8433 67.6004 19.6952 67.7851 19.6389C67.9698 19.7033 79.262 23.8513 79.262 23.8513L79.4548 23.2645L67.7851 18.9878L67.6968 19.0119Z" fill="white"/>
<path d="M69.6886 37.3809V24.9929H63.1751C65.0625 25.2341 65.6648 26.6972 65.6648 28.4095V37.1236C65.8174 37.1156 65.962 37.1156 66.1146 37.1156C67.5522 37.1156 68.7007 37.2201 69.6886 37.3809Z" fill="white"/>
<path d="M38.35 72.6155H37.4184L35.0009 70.1475V72.6155H34.3182V67.6233H35.0009V69.9063L37.0007 67.6233H37.844L35.78 69.9867L38.35 72.6155Z" fill="white"/>
<path d="M42.8797 68.6924L43.6427 70.5011H42.1649L42.8797 68.6924ZM43.1287 67.5911H42.6468L40.6068 72.6154H41.3055L41.8999 71.1442H43.9157L44.5502 72.6154H45.249L43.1287 67.5911Z" fill="white"/>
<path d="M49.2406 68.2342H49.6823C50.3409 68.2342 50.606 68.5156 50.614 68.9899C50.622 69.4079 50.4132 69.8018 49.6823 69.8018H49.2406V68.2342ZM48.566 67.6233V72.6155H49.2486V70.4449H49.5297C49.8751 70.4449 50.1642 70.5655 50.7907 71.5865L51.4171 72.6155H52.2283C51.899 72.1412 51.7866 71.9723 51.5777 71.6267C51.2163 71.0077 50.9513 70.5414 50.5176 70.244C51.0236 70.035 51.3127 69.6009 51.3127 69.0221C51.3127 68.1539 50.7184 67.6233 49.7546 67.6233H48.566Z" fill="white"/>
<path d="M56.2038 71.9723H58.3402V72.6155H55.5211V67.6233H56.2038V71.9723Z" fill="white"/>
<path d="M63.9702 68.7164C63.5686 68.3145 63.1751 68.1939 62.8538 68.1939C62.4121 68.1939 62.1069 68.4351 62.1069 68.7888C62.1069 69.7454 64.1549 69.7374 64.1549 71.321C64.1549 72.1089 63.5927 72.6796 62.8297 72.6796C62.3157 72.6796 61.8981 72.5349 61.5046 72.2214V71.313C61.8499 71.7793 62.2916 72.0365 62.7575 72.0365C63.2875 72.0365 63.5285 71.6828 63.5285 71.4095C63.5285 70.3805 61.4805 70.2599 61.4805 68.8933C61.4805 68.0814 62.0507 67.5588 62.9181 67.5588C63.2795 67.5588 63.6409 67.6794 63.9782 67.9126V68.7164H63.9702Z" fill="white"/>
<path d="M71.7125 72.6155H70.7728L68.3634 70.1475V72.6155H67.6807V67.6233H68.3634V69.9063L70.3552 67.6233H71.2065L69.1424 69.9867L71.7125 72.6155Z" fill="white"/>
<path d="M75.3748 68.2342H75.8085C76.4671 68.2342 76.7321 68.5156 76.7402 68.9899C76.7482 69.4079 76.5394 69.8018 75.8085 69.8018H75.3748V68.2342ZM74.6921 67.6233V72.6155H75.3748V70.4449H75.6559C76.0013 70.4449 76.2904 70.5655 76.9168 71.5865L77.5433 72.6155H78.3545C78.0252 72.1412 77.9127 71.9723 77.7039 71.6267C77.3425 71.0077 77.0775 70.5414 76.6438 70.244C77.1498 70.035 77.4389 69.6009 77.4389 69.0221C77.4389 68.1539 76.8446 67.6233 75.8808 67.6233H74.6921Z" fill="white"/>
<path d="M81.7357 70.1154C81.7357 69.0141 82.5227 68.2102 83.5749 68.2102C84.635 68.2102 85.4221 69.0141 85.4221 70.1154C85.4221 71.2087 84.635 72.0206 83.5749 72.0206C82.5227 72.0206 81.7357 71.2087 81.7357 70.1154ZM81.0369 70.1154C81.0369 71.474 82.0168 72.6798 83.5668 72.6798C85.1731 72.6798 86.1289 71.466 86.1289 70.1154C86.1289 68.7247 85.141 67.551 83.5749 67.551C82.0409 67.551 81.0369 68.7327 81.0369 70.1154Z" fill="white"/>
<path d="M94.1282 72.6155H93.5499L90.3775 68.7729V72.6155H89.735V67.6233H90.2811L93.4937 71.49V67.6233H94.1282V72.6155Z" fill="white"/>
<path d="M99.7019 68.6924L100.465 70.5011H98.9952L99.7019 68.6924ZM99.9509 67.5911H99.469L97.429 72.6154H98.1278L98.7221 71.1442H100.738L101.372 72.6154H102.071L99.9509 67.5911Z" fill="white"/>
</svg>
