<?xml version="1.0" encoding="utf-8"?>
<!-- Generator: Adobe Illustrator 23.0.4, SVG Export Plug-In . SVG Version: 6.00 Build 0)  -->
<svg version="1.1" id="Layer_1" xmlns="http://www.w3.org/2000/svg" xmlns:xlink="http://www.w3.org/1999/xlink" x="0px" y="0px"
	 viewBox="0 0 36 27" style="enable-background:new 0 0 36 27;" xml:space="preserve">
<style type="text/css">
	.st0{fill:none;stroke:#F36B41;stroke-width:2;stroke-linecap:round;stroke-linejoin:round;stroke-miterlimit:10;}
</style>
<path class="st0" d="M34.3,22.6c-1-0.7-2.8-1.6-4.4-1.6c-2.4,0-5,2-5.3,2.3c-0.6,0.5-3.7,2.7-6.7,2.7s-6.2-2.3-6.7-2.7
	C10.8,23,8.1,21,5.7,21c-1.6,0-3.4,0.9-4.4,1.6"/>
<path class="st0" d="M34.3,12.9c-1-0.8-2.8-1.9-4.4-1.9c-2.4,0-5,2.4-5.3,2.7c-0.6,0.6-3.7,3.3-6.7,3.3s-6.2-2.7-6.7-3.3
	C10.8,13.4,8.1,11,5.7,11c-1.6,0-3.4,1.1-4.4,1.9"/>
<path class="st0" d="M34.3,2.6c-1-0.7-2.8-1.6-4.4-1.6c-2.4,0-5,2-5.3,2.3C23.9,3.7,20.9,6,17.8,6s-6.2-2.3-6.7-2.7
	C10.8,3,8.1,1,5.7,1C4.1,1,2.4,1.9,1.3,2.6"/>
</svg>
