<svg width="36" height="27" viewBox="0 0 36 27" fill="none" xmlns="http://www.w3.org/2000/svg">
<path d="M34.2714 22.5998C33.2277 21.9293 31.4887 21 29.8638 21C27.4661 21 24.8207 23.0222 24.5267 23.2533C23.9423 23.7122 20.8712 26 17.7897 26C14.7082 26 11.637 23.7115 11.0527 23.2533C10.7587 23.0228 8.11329 21 5.71554 21C4.09061 21 2.35162 21.9293 1.30798 22.5998" stroke="white" stroke-width="2" stroke-miterlimit="10" stroke-linecap="round" stroke-linejoin="round"/>
<path d="M34.2714 12.9197C33.2277 12.1152 31.4887 11 29.8638 11C27.4661 11 24.8207 13.4266 24.5267 13.704C23.9423 14.2547 20.8712 17 17.7897 17C14.7082 17 11.637 14.2539 11.0527 13.704C10.7587 13.4274 8.11329 11 5.71554 11C4.09061 11 2.35162 12.1152 1.30798 12.9197" stroke="white" stroke-width="2" stroke-miterlimit="10" stroke-linecap="round" stroke-linejoin="round"/>
<path d="M34.2714 2.59976C33.2277 1.92931 31.4887 1 29.8638 1C27.4661 1 24.8207 3.02217 24.5267 3.25331C23.9423 3.71222 20.8712 6 17.7897 6C14.7082 6 11.637 3.71154 11.0527 3.25331C10.7587 3.02284 8.11329 1 5.71554 1C4.09061 1 2.35162 1.92931 1.30798 2.59976" stroke="white" stroke-width="2" stroke-miterlimit="10" stroke-linecap="round" stroke-linejoin="round"/>
</svg>
