<?xml version="1.0" encoding="utf-8"?>
<!-- Generator: Adobe Illustrator 23.0.4, SVG Export Plug-In . SVG Version: 6.00 Build 0)  -->
<svg version="1.1" id="Layer_1" xmlns="http://www.w3.org/2000/svg" xmlns:xlink="http://www.w3.org/1999/xlink" x="0px" y="0px"
	 viewBox="0 0 36 27" style="enable-background:new 0 0 36 27;" xml:space="preserve">
<style type="text/css">
	.st0{fill:none;stroke:#FFFFFF;stroke-width:2;stroke-linecap:round;stroke-linejoin:round;stroke-miterlimit:10;}
</style>
<path class="st0" d="M36,22.6c-1.1-0.7-3-1.6-4.8-1.6c-2.6,0-5.5,2-5.8,2.3c-0.6,0.5-4,2.7-7.4,2.7s-6.7-2.3-7.4-2.7
	C10.3,23,7.4,21,4.8,21C3,21,1.1,21.9,0,22.6"/>
<path class="st0" d="M36,12.9c-1.1-0.8-3-1.9-4.8-1.9c-2.6,0-5.5,2.4-5.8,2.7c-0.6,0.6-4,3.3-7.4,3.3s-6.7-2.7-7.4-3.3
	C10.3,13.4,7.4,11,4.8,11C3,11,1.1,12.1,0,12.9"/>
<path class="st0" d="M36,2.6C34.9,1.9,33,1,31.2,1c-2.6,0-5.5,2-5.8,2.3C24.7,3.7,21.4,6,18,6s-6.7-2.3-7.4-2.7C10.3,3,7.4,1,4.8,1
	C3,1,1.1,1.9,0,2.6"/>
</svg>
