<svg width="508" height="1884" viewBox="0 0 508 1884" fill="none" xmlns="http://www.w3.org/2000/svg">
<path d="M-187.158 1883.31C-214.649 1863.23 -222.594 1836.58 -230.283 1810.77C-235.671 1792.32 -241.202 1773.16 -254.72 1757.69C-265.176 1745.64 -281.566 1738.43 -297.538 1731.4C-314.348 1724.03 -330.242 1717.06 -338.649 1705.06C-348.267 1691.1 -349.904 1669.41 -351.235 1651.98L-351.286 1651.4C-351.72 1641.71 -353.136 1632.09 -355.513 1622.68C-360.111 1607.65 -371.18 1587.17 -384.05 1563.9L-386.255 1559.85C-388.014 1556.65 -389.772 1553.41 -391.485 1550.19C-425.833 1486.79 -429.357 1425.25 -433.106 1359.96C-433.745 1348.21 -434.532 1334.33 -435.531 1320.44C-436.421 1309.18 -438.123 1297.89 -439.945 1286.38C-442.627 1271.84 -444.129 1257.12 -444.437 1242.35C-444.418 1237.42 -443.999 1232.5 -443.182 1227.64C-439.694 1209.46 -435.117 1191.5 -429.475 1173.87C-415.108 1125.43 -401.597 1079.67 -431.595 1038.92C-439.827 1027.88 -448.921 1017.51 -458.793 1007.89C-462.918 1003.7 -467.178 999.359 -471.919 994.18C-472.241 993.829 -472.484 993.415 -472.634 992.964C-473.443 990.501 -474.202 988.001 -474.945 985.536L-475.519 983.622C-493.095 927.286 -511.267 868.969 -468.324 840.988C-429.769 815.854 -375.796 839.474 -349.548 877.29C-339.036 892.398 -334.42 910.572 -329.554 929.824L-329.405 930.442C-327.376 938.387 -325.283 946.587 -322.702 954.669C-322.675 954.748 -322.646 954.825 -322.615 954.914C-317.946 967.051 -311.551 978.462 -303.622 988.802L-302.474 990.481C-298.551 995.927 -294.934 1001.58 -291.64 1007.43C-278.772 1031.38 -289.753 1054.34 -300.37 1076.52L-300.541 1076.88C-313.921 1104.62 -327.77 1133.32 -287.324 1158.23C-260.035 1175.07 -234.759 1164.53 -210.309 1154.31L-209.811 1154.11C-203.668 1151.57 -197.31 1148.95 -190.847 1146.67C-183.042 1143.95 -175.331 1141.44 -167.805 1138.97L-161.517 1136.91C-133.454 1127.8 -106.948 1119.21 -87.5527 1104.94C-38.1629 1068.76 -42.1542 1030.65 -46.0453 993.776L-46.132 992.92C-48.6468 976.983 -48.6843 960.759 -46.2432 944.811L-46.1876 944.511C-40.6257 918.481 -2.75787 891.423 16.0659 885.348C25.7714 882.736 35.8127 881.561 45.8645 881.861L47.7377 881.806C56.4383 881.777 65.1206 881.011 73.6896 879.515C73.8165 879.493 73.9432 879.464 74.0701 879.431C84.3148 876.701 93.9635 872.118 102.532 865.914L102.954 865.654C106.952 863.011 111.113 860.619 115.413 858.493C147.127 843.641 176.149 849.045 206.891 854.772C223.778 858.481 240.991 860.541 258.283 860.925C276.731 860.881 298.567 855.476 320.032 850.164C326.835 848.485 334.559 846.571 342.003 844.914C376.409 836.853 409.56 824.224 440.561 807.369C477.521 787.395 470.557 754.266 463.102 719.067L463.004 718.604C458.45 701.491 456.457 683.808 457.089 666.121C457.089 666.017 457.097 665.914 457.111 665.812C457.533 661.807 458.198 657.831 459.102 653.906L459.585 651.522C460.814 646.567 461.683 641.529 462.183 636.45C465.251 596.727 451.671 579.198 432.872 554.918C427.94 548.706 423.848 543.312 419.968 537.926C396.561 505.28 368.952 501.603 342.101 498.019C325.68 495.782 308.708 493.484 293.294 484.079C277.443 474.446 259.384 448.438 256.706 443.592C237.431 409.923 223.949 373.303 216.813 335.237C216.239 332.207 215.772 329.084 215.303 325.844C212.148 306.175 208.882 285.83 197.976 273.01C183.413 256.084 164.605 254.72 144.526 253.27L144.115 253.242C127.489 252.023 110.298 250.766 93.5368 240.371C76.1836 229.518 65.24 212.872 55.6068 198.194L55.3642 197.83C39.6685 173.674 24.8538 150.862 -12.7404 166.758L-14.2488 167.318L-14.7071 168.828C-22.9565 197.623 -16.6493 225.179 4.00324 250.737C9.88205 257.467 17.1275 262.89 25.2654 266.65L25.8393 266.939C31.8023 269.764 37.2823 273.497 42.0801 278.004C46.8435 282.527 50.6067 287.983 53.1306 294.026C55.6127 299.967 56.8248 306.355 56.6902 312.784C56.6867 312.932 56.6756 313.079 56.6568 313.226C56.2504 316.581 55.1166 319.809 53.333 322.688C51.6088 325.471 49.3292 327.874 46.6342 329.75C46.2876 329.99 45.8991 330.164 45.4885 330.262C27.2454 334.736 11.8278 327.638 -4.66446 320.034C-17.332 313.271 -31.0812 308.728 -45.3065 306.605C-70.2996 303.785 -110.032 288.913 -111.767 260.935C-111.794 260.428 -111.702 259.923 -111.498 259.458C-102.901 239.56 -95.789 219.063 -90.218 198.132L-89.328 195.1C-86.7562 186.191 -83.3834 174.672 -79.6992 163.298C-79.5485 162.845 -79.3011 162.43 -78.974 162.082C-78.6458 161.734 -78.2448 161.462 -77.7992 161.285C-68.7974 157.588 -61.1719 151.214 -55.9721 143.041C-50.5484 134.5 -48.1446 124.411 -49.1399 114.365C-49.7073 102.911 -54.0569 91.9602 -61.5184 83.2005C-69.058 74.3533 -79.2695 68.1497 -90.6407 65.5083L-91.9956 65.5855C-124.604 73.6978 -126.014 94.2016 -127.369 113.999L-127.405 114.44C-128.226 126.115 -129.076 138.175 -136.07 148.523C-139.588 153.667 -142.571 157.586 -144.97 160.729L-148.607 165.621C-163.335 186.028 -161.753 203.594 -160.158 220.986C-160.155 221.061 -160.145 221.135 -160.129 221.207C-158.053 232.657 -158.654 244.427 -161.887 255.61C-161.926 255.75 -161.973 255.889 -162.029 256.024C-165.949 265.774 -173.067 273.929 -182.234 279.172L-182.733 279.532C-186.601 282.23 -190.302 285.157 -193.814 288.297C-202.713 296.718 -210.849 305.68 -218.676 314.338L-223.097 319.252C-228.977 325.789 -234.443 333.29 -241.925 338.163C-249.489 343.093 -257.861 344.342 -265.256 349.883C-280.854 361.557 -292.641 377.875 -304.023 393.404L-306.788 397.048C-308.123 398.826 -309.362 400.46 -310.486 401.903C-316.568 409.252 -323.385 415.973 -330.831 421.961L-331.57 422.623C-337.121 427.04 -342.153 432.063 -346.571 437.596C-346.645 437.687 -346.714 437.779 -346.778 437.876C-358.347 454.887 -362.964 478.142 -367.042 498.721C-372.85 527.79 -378.808 557.842 -402.035 574.261C-415.944 584.137 -482.647 606.631 -514.504 615.926C-542.48 624.091 -561.384 618.528 -580.998 607.56C-581.256 607.416 -581.494 607.237 -581.705 607.03C-583.009 605.764 -584.341 604.464 -585.823 602.91C-592.973 595.67 -600.38 588.195 -612.102 587.429L-612.852 587.507C-635.6 592.653 -649.663 607.648 -662.119 620.918L-663.209 622.037C-668.489 627.876 -674.2 633.318 -680.293 638.317C-688.029 644.051 -696.129 649.285 -704.543 653.985C-719.449 662.724 -733.523 670.962 -743.739 686.441C-763.858 717.07 -754.134 739.705 -741.722 768.52L-741.148 769.822C-739.056 774.677 -736.889 779.693 -734.827 785.014C-730.916 794.713 -726.818 804.699 -722.657 814.771C-705.166 857.294 -687.061 901.279 -682.347 939.358C-678.832 967.42 -692.581 974.87 -710.51 983.113L-712.715 984.126C-725.229 989.846 -738.18 995.74 -746.309 1009.1C-764.806 1039.51 -757.528 1150.25 -734.678 1185.92" stroke="white" stroke-opacity="0.3" stroke-linecap="round" stroke-linejoin="round"/>
<path d="M-191.95 1822.88C-201.313 1810.31 -208.614 1796.35 -213.581 1781.52L-213.804 1780.95C-222.727 1758.67 -231.976 1735.62 -256.297 1717C-261.224 1713.36 -266.349 1710 -271.648 1706.92L-271.968 1706.72C-282.001 1701.54 -290.815 1694.31 -297.829 1685.5C-308.472 1651.6 -326.134 1618.67 -344.836 1583.8L-345.41 1582.69C-373.849 1529.58 -403.254 1474.66 -407.815 1413.86C-408.522 1404.15 -408.651 1393.96 -408.785 1384.11L-408.785 1381.5C-408.889 1368.7 -408.976 1355.48 -410.322 1342.38C-411.528 1329.85 -413.995 1317.49 -416.38 1305.53L-416.5 1304.89C-419.695 1291.14 -421.818 1277.16 -422.85 1263.08C-422.879 1262.49 -422.961 1261.9 -422.976 1261.32C-423.768 1234.48 -414.422 1208.6 -400.824 1185.74C-396.955 1179.24 -392.279 1173.13 -387.783 1167.05C-385.066 1163.38 -382.306 1159.74 -379.504 1156.13C-377.008 1152.48 -374.149 1149.09 -370.97 1146.01C-369.463 1144.9 -367.727 1144.14 -365.887 1143.79C-364.048 1143.44 -362.152 1143.49 -360.338 1143.96C-351.842 1145.64 -323.202 1166.41 -316.172 1171.85L-315.415 1172.44C-298.173 1185.8 -281.846 1198.43 -258.508 1201.93C-204.075 1210.19 -109.867 1153.81 -63.2735 1116.35C-35.6864 1094.14 -18.9005 1063.75 -10.5243 1020.75C-8.49077 1008.33 -7.40129 995.769 -7.26498 983.181C-5.87005 946.914 -4.74878 918.24 42.5698 916.369C75.5654 924.503 97.446 912.165 118.606 900.23C130.396 892.61 143.469 887.15 157.203 884.109C174.973 881.346 191.113 885.003 210.168 889.304C224.083 892.794 238.235 895.275 252.512 896.728C271.683 898.273 295.099 890.789 317.731 883.54L323.529 881.748C332.206 879.054 341.189 876.277 349.695 874.245C401.485 861.586 484.422 833.324 500.786 807.294C514.515 785.27 503.798 758.009 493.359 731.465C487.082 717.354 482.542 702.543 479.837 687.355C478.375 673.302 478.611 659.126 480.538 645.129L480.651 644.046C483.456 627.276 483.12 610.138 479.659 593.489C469.964 553.157 433.415 497.351 405.848 480.835C390.906 471.853 372.85 469.75 358.374 468.059L356.136 467.783C352.91 467.382 349.813 466.991 346.88 466.548C302.305 459.706 280.787 436.685 274.936 389.529C273.68 377.647 273.622 365.671 274.765 353.778C276.202 332.895 277.445 314.856 260.811 289.275C239.424 256.439 213.728 222.002 185.242 215.52C173.839 212.785 161.97 212.559 150.469 214.858C146.098 215.888 141.576 216.124 137.12 215.553C116.523 211.638 103.144 194.29 88.8429 175.83L88.4758 175.367C78.8328 161.782 67.4454 149.502 54.6015 138.837C47.658 133.362 39.9736 128.357 32.5406 123.511L30.5717 122.224C13.3276 110.94 -4.48622 99.2729 -17.47 82.2604C-23.2181 73.7078 -28.1418 64.6374 -32.1757 55.1693C-40.503 37.3579 -49.9427 17.1742 -64.466 8.16369C-69.4933 4.84338 -75.1491 2.5722 -81.0891 1.4883C-87.0292 0.404405 -93.1294 0.530448 -99.0189 1.85877C-118.748 6.17975 -139.323 23.7197 -156.963 51.2499C-175.695 80.2213 -185.36 111.68 -194.699 142.145C-206.853 181.683 -218.505 218.943 -248.147 247.02C-258.397 256.654 -269.272 265.611 -280.702 273.834C-284.903 276.747 -289.263 279.427 -293.764 281.86L-295.099 282.617C-308.892 290.511 -326.077 300.331 -333.983 312.164C-338.356 319.901 -341.489 328.265 -343.267 336.958L-343.39 337.43C-343.717 338.549 -344.033 339.721 -344.326 340.846C-344.9 342.982 -345.477 345.083 -346.126 347.1C-353.559 368.616 -362.183 389.709 -371.958 410.282C-375.275 417.417 -378.761 425.165 -382.305 433.306C-387.307 444.631 -391.427 455.816 -395.431 466.598L-396.579 469.708C-401.924 485.978 -408.912 501.671 -417.437 516.548C-434.919 543.895 -467.541 572.774 -496.04 575.058C-522.715 577.209 -541.537 555.96 -552.947 534.593C-557.751 525.6 -562.854 515.643 -565.001 505.633C-567.057 496.046 -562.679 486.308 -564.556 476.58C-566.518 468.024 -569.49 459.728 -573.413 451.863L-573.776 451.053C-577.745 443.236 -580.632 434.921 -582.357 426.337C-583.283 414.532 -582.046 402.659 -578.706 391.292C-576.789 383.625 -575.388 375.84 -574.512 367.988C-569.96 317.672 -588.306 276.102 -623.533 256.764C-647.707 243.456 -674.288 240.239 -694.656 248.157C-702.767 251.442 -710.007 256.534 -715.816 263.04C-721.578 269.496 -725.738 277.199 -727.963 285.534C-733.71 306.692 -737.134 328.404 -738.175 350.291C-738.102 364.737 -735.154 379.026 -729.498 392.338L-728.924 394.018C-725.898 401.449 -723.837 409.232 -722.788 417.178C-721.102 443.082 -743.321 468.748 -762.952 491.425C-771.574 500.871 -779.505 510.916 -786.684 521.482C-791.781 529.411 -796.001 536.767 -799.81 543.451C-803.884 550.582 -807.946 557.745 -812.609 564.52C-816.974 570.997 -822.13 576.914 -827.96 582.135C-834.436 587.501 -841.531 592.086 -849.095 595.795C-856.764 599.843 -862.284 604.197 -856.764 613.432C-848.891 626.598 -827.871 623.928 -814.469 626.923C-800.626 630.012 -788.76 636.562 -786.043 651.449C-783.959 662.484 -791.712 682.491 -799.919 703.665C-807.121 722.17 -814.998 741.106 -817.706 760.893C-819.103 771.086 -819.03 782.769 -813.902 792.009C-808.039 802.58 -794.195 806.049 -784.535 812.445C-763.869 826.127 -747.479 845.816 -743.056 870.566C-738.259 896.865 -746.734 914.003 -765.715 929.418C-770.381 933.129 -775.255 936.574 -780.314 939.737C-785.011 942.741 -790.724 944.93 -794.855 948.664C-801.694 954.843 -799.992 966.005 -799.427 974.239C-798.492 984.033 -796.776 993.739 -794.297 1003.27" stroke="white" stroke-opacity="0.3" stroke-linecap="round" stroke-linejoin="round"/>
<path d="M-230.071 1877.88C-237.024 1848.15 -244.225 1817.42 -266.113 1788.87C-279.172 1771.83 -298.472 1762.57 -317.146 1753.58L-317.801 1753.26C-339.145 1742.89 -359.295 1733.06 -368.848 1712.43C-375.869 1697.53 -376.19 1680.68 -376.53 1662.83C-376.85 1646.06 -377.22 1627.1 -384.179 1609.53C-391.661 1592.17 -401.512 1575.91 -413.457 1561.2C-417.404 1555.86 -422.076 1550.76 -426.534 1545.83L-428.156 1544.04C-437.352 1535.13 -444.986 1524.77 -450.742 1513.37C-453.576 1504.97 -455.077 1496.19 -455.191 1487.34L-455.334 1485.35C-455.743 1479.57 -456.172 1473.6 -457.093 1467.43C-457.861 1462.01 -458.76 1456.41 -459.672 1450.7L-460.822 1443.68C-465.717 1413.75 -470.749 1382.8 -469.007 1357.33C-468.431 1348.94 -467.425 1341 -466.291 1332.08C-464.088 1318.32 -463.194 1304.38 -463.621 1290.45C-464.126 1282.99 -465.011 1275.89 -465.879 1269.04L-466.36 1265.12C-468.324 1254.14 -469.118 1242.98 -468.729 1231.83C-468.355 1227.32 -467.703 1222.62 -466.949 1217.84C-465.254 1207.15 -462.827 1196.02 -460.395 1185.1C-452.564 1149.74 -444.448 1113.19 -456.51 1081.58C-462.455 1065.84 -475.477 1052.08 -487.148 1039.73C-498.494 1027.68 -509.209 1016.29 -513.974 1003.74C-516.663 994.048 -517.859 984.009 -517.523 973.962L-517.694 970.011C-518.014 962.7 -518.361 954.414 -519.329 945.597C-520.497 936.419 -522.299 927.331 -524.724 918.398L-524.947 917.427C-527.576 908.266 -529.152 898.84 -529.645 889.327C-529.645 856.097 -513.932 802.87 -499.987 789.307C-483.212 773.232 -453.589 773.859 -443.589 775.457C-417.877 779.522 -374.877 805.223 -352.556 822.178C-322.842 844.688 -313.923 868.786 -302.628 899.309L-302.405 899.942C-296.666 916.13 -289.947 931.96 -282.286 947.345C-277.269 956.695 -271.725 965.757 -265.681 974.489L-264.76 975.866C-256.215 987.319 -249.374 999.93 -244.448 1013.31C-242.346 1022.11 -241.16 1031.11 -240.91 1040.15C-239.76 1057.23 -238.552 1074.89 -229.161 1084.91C-209.77 1105.5 -162.614 1104.58 -136.03 1096C-114.803 1089.55 -96.8592 1075.31 -85.8706 1056.18C-72.8534 1031.88 -75.5542 1003.8 -78.1972 976.363L-78.284 975.356C-80.6156 950.435 -82.8114 926.894 -72.7221 908.048C-59.2444 882.908 -25.4858 869.525 7.16715 856.611C11.7613 854.722 16.3955 852.859 21.0208 851.063C30.3915 847.199 39.1905 843.189 47.6891 839.312L54.0119 836.443C76.3909 826.009 97.5306 816.153 121.318 812.556C144.816 808.999 168.848 813.907 194.306 819.108L195.338 819.318C219.205 824.104 243.885 829.059 270.284 827.483C304.419 825.839 338.071 818.801 369.969 806.635C401.768 793.765 420.894 777.984 426.808 759.808C432.752 741.995 426.554 728.16 419.911 713.244C415.592 704.462 412.307 695.215 410.122 685.687C413.493 676.356 417.895 667.424 423.248 659.053L423.709 658.285C432.327 643.74 440.506 629.982 436.57 610.441C432.855 592.254 399.249 546.001 372.719 532.502C356.625 524.337 336.602 521.938 318.931 519.828L318.45 519.773C292.985 516.644 268.942 513.698 253.881 496.983C240.775 480.54 232.768 459.822 224.939 439.544C211.383 404.775 197.352 368.839 157.697 353.409L156.807 352.945L155.744 353.102C137.069 356.184 118.992 362.127 102.158 370.719C78.5467 381.349 56.25 391.421 22.6515 387.659C0.931125 385.207 -21.5057 370.955 -43.1905 357.169L-43.8401 356.754C-75.0714 336.696 -107.38 315.945 -140.66 327.216C-165.499 335.71 -173.01 358.773 -181.028 383.468C-185.321 398.835 -191.7 413.551 -199.992 427.212C-208.669 440.307 -223.33 449.28 -240.332 459.712L-241.411 460.374C-262.177 473.198 -285.713 487.739 -303.62 513.338C-307.869 519.74 -311.69 526.413 -315.057 533.312C-324.553 551.673 -335.283 572.481 -364.794 589.633C-383.284 599.075 -402.59 606.853 -422.48 612.875C-434.049 616.79 -447.191 621.221 -459.516 626.072C-465.917 628.601 -472.337 631.24 -479.112 634.085C-505.128 644.867 -532.037 656.01 -554.309 655.738C-566.936 655.734 -579.466 653.54 -591.331 649.255C-603.225 644.356 -616.518 643.957 -628.688 648.136C-656.275 656.647 -683.951 689.697 -688.509 711.397C-693.17 733.604 -692.572 761.377 -686.672 796.305C-681.797 825.402 -667.452 851.143 -653.574 876.067L-653.156 876.819C-644.411 891.829 -636.554 907.332 -629.626 923.249C-624.1 936.655 -614.042 959.339 -617.911 974.039C-618.24 975.279 -618.701 976.481 -619.286 977.625C-626.892 992.607 -646.619 1004.09 -659.83 1013.62C-663.036 1015.93 -666.242 1018.28 -669.445 1020.65C-685.377 1032.47 -700.55 1045.35 -708.766 1063.14C-719.859 1087.19 -723.26 1129.42 -707.696 1160.19" stroke="white" stroke-opacity="0.3" stroke-linecap="round" stroke-linejoin="round"/>
<path d="M-306.412 719.652C-304.524 714.654 -301.084 710.38 -296.589 707.447C-293.375 705.106 -290.506 702.331 -288.066 699.202C-277.957 684.577 -269.314 669.008 -262.259 652.715L-261.591 651.276C-245.682 617.531 -229.228 582.621 -194.492 574.814C-180.049 571.567 -165.621 576.219 -150.239 581.185C-133.331 586.64 -115.86 592.283 -98.1642 586.591C-82.8133 581.69 -74.2546 569.742 -65.182 557.104L-64.9283 556.746C-54.5424 538.548 -37.6398 524.888 -17.5741 518.475C-11.5672 515.951 -5.19546 513.23 0.993854 510.089C9.16543 505.896 16.6362 501.427 22.9301 497.568C35.965 489.568 50.3192 480.575 65.8837 478.841C74.0397 477.934 86.1291 478.326 92.6944 484.252C103.433 493.951 90.7366 507.898 82.4093 514.265C73.3122 520.295 66.2999 528.949 62.3196 539.058C58.4063 552.491 57.4256 566.598 59.443 580.437C60.6488 596.527 61.7945 611.718 51.4938 622.349C51.2024 622.651 50.9199 622.96 50.6039 623.247C38.0807 635.438 19.7954 636.943 0.386463 638.549C-16.2615 639.926 -51.9491 641.197 -60.3854 659.49C-61.1613 661.378 -61.7666 663.332 -62.1941 665.327C-71.0665 699.323 -102.129 718.07 -130.074 735.725C-134.548 738.523 -139.055 741.319 -143.719 744.362C-148.316 747.348 -152.753 750.553 -157.027 753.978C-162.782 758.858 -169.243 762.851 -176.196 765.824C-211.707 778.043 -249.282 762.589 -276.962 751.153C-278.112 750.23 -279.363 749.288 -280.631 748.326C-281.614 747.576 -282.607 746.834 -283.786 745.909C-293.539 738.528 -304.616 730.166 -306.412 719.652Z" stroke="white" stroke-opacity="0.3" stroke-linecap="round" stroke-linejoin="round"/>
<path d="M-323.057 774.645C-318.83 776.389 -314.321 778.161 -309.629 779.986L-308.127 780.548C-276.224 793.035 -236.514 808.575 -226.867 829.048C-222.013 839.352 -224.12 850.869 -225.995 861.027L-226.242 862.552C-227.37 868.152 -227.909 873.853 -227.85 879.563C-226.173 919.912 -213.485 944.987 -189.155 956.222L-188.752 956.396C-184.564 957.689 -180.138 958.036 -175.797 957.412C-171.456 956.788 -167.311 955.209 -163.666 952.79L-163.332 952.569L-162.791 951.936C-154.811 940.665 -155.147 928.007 -155.483 915.766L-155.483 915.205C-155.851 909.985 -155.772 904.744 -155.247 899.537C-149.605 852.611 -124.546 805.036 -94.2642 783.777C-75.8809 770.792 -58.1584 771.178 -39.4259 771.593L-39.3902 770.081L-38.9675 771.587C-29.3439 772.07 -19.6965 771.755 -10.1256 770.646C14.5149 766.867 38.1391 758.217 59.3451 745.208C74.2644 736.321 91.8956 724.848 103.048 711.393C110.597 702.283 108.421 693.076 107.614 682.247C106.454 669.612 106.095 656.917 106.537 644.237C107.58 624.024 111.256 603.73 119.525 585.131C129.572 562.537 149.239 560.562 163.96 543.071C172.204 533.266 177.159 521.154 178.134 508.424C180.664 480.445 166.065 452.915 142.607 441.495C114.508 427.918 73.8016 435.386 49.4649 439.82C40.1895 441.775 31.0576 444.349 22.1313 447.524L21.7576 447.645C9.7899 452.39 -2.83668 455.298 -15.6875 456.269C-30.4697 455.967 -44.9544 452.092 -57.8847 444.979C-66.2032 440.404 -78.1813 434.245 -87.8902 434.786C-105.19 435.748 -104.204 463.574 -104.95 475.612L-104.992 476.343C-106.062 493.739 -107.097 511.723 -121.484 522.942C-133.029 532.026 -150.222 531.132 -168.427 530.225C-185.529 529.342 -203.202 528.417 -218.382 535.499C-236.68 544.236 -251.193 566 -264.027 585.208C-276.017 603.114 -288.384 621.608 -303.281 631.093C-313.911 636.879 -325.199 641.386 -336.906 644.519L-337.351 644.654C-367.889 654.269 -402.482 665.177 -407.327 699.324C-412.869 739.431 -369.001 756.624 -333.765 770.435C-330.134 771.862 -326.481 773.288 -323.073 774.672" stroke="white" stroke-opacity="0.3" stroke-linecap="round" stroke-linejoin="round"/>
<path d="M-494.988 722.871L-494.507 722.986C-458.491 726.53 -442.41 737.771 -419.989 753.425C-408.484 761.72 -396.545 769.408 -384.223 776.455C-373.875 782.153 -363.175 787.198 -352.187 791.561C-329.523 801.114 -309.949 809.355 -294.138 832.231C-282.58 848.797 -274.186 872.794 -265.301 898.189C-254.379 929.42 -243.033 961.708 -224.961 981.561C-203.467 1005.09 -162.937 1036.79 -139.325 1027.64C-108.525 1015.75 -111.113 982.423 -113.587 950.107C-115.089 930.881 -116.626 910.995 -111.099 895.558C-102.069 870.316 -79.2074 840.868 -51.8672 834.053C-35.7933 830.046 -19.8416 829.746 -3.83442 823.845C13.4854 817.46 29.5371 808.344 45.462 799.161L45.8112 798.958C71.9056 783.978 96.5538 769.861 130.522 768.345C152.865 767.292 174.71 774.601 196.106 781.774C217.134 788.782 238.87 796.03 261.901 795.734C283.926 795.46 318.007 785.104 334.651 768.921C337.98 765.804 340.666 762.074 342.56 757.94C347.899 746.047 345.174 729.03 342.297 711.014L342.22 710.528C339.443 692.982 336.577 674.83 341.41 661.757C345.344 654.055 350.214 646.859 355.911 640.331C364.917 628.747 374.238 616.775 375.324 606.758C380.29 559.292 336.629 554.311 298.125 549.921L297.626 549.866C269.082 546.505 239.578 543.025 225.842 524.744C214.295 509.459 209.356 489.959 204.582 471.104L204.313 470.045C198.083 445.258 192.203 421.85 172.276 409.425C145.423 392.735 112.067 401.525 76.6867 410.851L76.2194 410.977C44.5832 419.301 11.8546 427.905 -17.7526 418.189C-32.1891 413.347 -44.2429 402.264 -55.9563 391.486C-73.1071 375.72 -90.8474 359.43 -115.487 363.804C-152.195 370.111 -153.644 410.094 -154.807 442.46C-155.332 458.311 -155.884 474.699 -161.293 481.287C-168.832 490.48 -186.326 495.273 -203.341 499.937C-223.163 505.432 -243.656 511.127 -257.507 524.044C-268.159 535.003 -277.413 547.218 -285.061 560.415L-285.826 561.589C-295.849 577.257 -305.366 592.019 -316.506 599.414C-329.322 606.197 -342.687 611.908 -356.46 616.488C-376.413 623.519 -395.918 631.742 -414.867 641.114C-420.36 643.983 -425.546 647.073 -430.145 649.781L-433.355 651.685C-438.79 654.96 -443.927 658.047 -447.967 660C-451.605 661.574 -456.758 663.487 -463.118 665.829C-484.698 673.758 -514.27 684.607 -515.244 700.118C-515.816 707.997 -509.46 715.346 -495.704 722.613L-494.988 722.871Z" stroke="white" stroke-opacity="0.3" stroke-linecap="round" stroke-linejoin="round"/>
</svg>
