<?xml version="1.0" encoding="utf-8"?>
<!-- Generator: Adobe Illustrator 23.0.4, SVG Export Plug-In . SVG Version: 6.00 Build 0)  -->
<svg version="1.1" id="Layer_1" xmlns="http://www.w3.org/2000/svg" xmlns:xlink="http://www.w3.org/1999/xlink" x="0px" y="0px"
	 viewBox="0 0 16 9" style="enable-background:new 0 0 16 9;" xml:space="preserve">
<style type="text/css">
	.st0{fill:#F36B41;}
</style>
<path class="st0" d="M14.6,0.8L14.6,0.8c0.5,0.4,0.5,1.2,0,1.6L9,7.8c-0.5,0.4-1.2,0.4-1.6,0l0,0c-0.5-0.4-0.5-1.2,0-1.6L13,0.8
	C13.4,0.4,14.1,0.4,14.6,0.8z"/>
<path class="st0" d="M1.8,0.8L1.8,0.8c-0.5,0.4-0.5,1.2,0,1.6l5.6,5.4c0.5,0.4,1.2,0.4,1.6,0l0,0c0.5-0.4,0.5-1.2,0-1.6L3.4,0.8
	C2.9,0.4,2.2,0.4,1.8,0.8z"/>
</svg>
