<svg width="29" height="20" viewBox="0 0 29 20" fill="none" xmlns="http://www.w3.org/2000/svg">
<path d="M7.53049 8.50987L7.70889 8.69311H13.0609L13.2413 8.50987V0.183246L13.4197 0H15.6001L15.7785 0.183246V8.50987L15.9569 8.69311H21.309L21.4893 8.51188V3.88039L21.6658 3.69915H23.8462L24.0246 3.88039V8.51188L24.203 8.69311H28.8216L29 8.87435V11.0894L28.8216 11.2706H24.201L24.0226 11.4539V16.0552L23.8442 16.2384H21.6638L21.4834 16.0552V11.4599L21.303 11.2787H15.9569L15.7785 11.4599V19.8188L15.6021 20H13.4217L13.2433 19.8188V11.4599L13.0629 11.2787H7.71087L7.53247 11.4599V16.0652L7.35208 16.2465H5.17163L4.99323 16.0652V11.4619L4.81483 11.2787H0.180383L0 11.0975V8.8824L0.180383 8.70117H4.8069L4.9853 8.51994V3.88844L5.16371 3.70721H7.34416L7.52454 3.86226L7.53049 8.50987Z" fill="#F37341"/>
</svg>
