<svg width="120" height="17" viewBox="0 0 120 17" fill="none" xmlns="http://www.w3.org/2000/svg">
<g clip-path="url(#clip0)">
<path d="M42.8134 2.53591C42.8933 2.48882 42.6605 2.21973 42.3944 2.21973H40.4124H38.4303C38.1643 2.21973 37.9315 2.48882 38.0113 2.53591C38.703 2.93955 39.2418 3.20865 39.2418 3.90829V11.6986C39.2418 12.3982 38.703 12.674 38.0113 13.0709C37.9315 13.118 38.1643 13.3871 38.4303 13.3871H40.4124H42.3944C42.6605 13.3871 42.8933 13.118 42.8134 13.0709C42.1217 12.6673 41.583 12.3982 41.583 11.6986V3.90829C41.583 3.20865 42.1217 2.93283 42.8134 2.53591Z" fill="white"/>
<path d="M37.1001 2.53591C37.1799 2.48882 36.9471 2.21973 36.6811 2.21973H34.699H32.717C32.4509 2.21973 32.2182 2.48882 32.298 2.53591C32.9897 2.93283 33.5284 3.20865 33.5284 3.90829V7.0836H30.8148H28.3339V3.90829C28.3339 3.20865 28.8726 2.93955 29.5644 2.53591C29.6442 2.48882 29.4114 2.21973 29.1453 2.21973H27.1633H25.1813C24.9152 2.21973 24.6824 2.48882 24.7622 2.53591C25.4539 2.93283 25.9927 3.20865 25.9927 3.90829V11.6986C25.9927 12.3982 25.4539 12.674 24.7622 13.0709C24.6824 13.118 24.9152 13.3871 25.1813 13.3871H27.1633H29.1453C29.4114 13.3871 29.6442 13.118 29.5644 13.0709C28.8726 12.674 28.3339 12.3982 28.3339 11.6986V8.35507H30.8148H33.5284V11.6986C33.5284 12.3982 32.9897 12.674 32.298 13.0709C32.2182 13.118 32.4509 13.3871 32.717 13.3871H34.699H36.6811C36.9471 13.3871 37.1799 13.118 37.1001 13.0709C36.4084 12.674 35.8696 12.3982 35.8696 11.6986V3.90829C35.8696 3.20865 36.4084 2.93283 37.1001 2.53591Z" fill="white"/>
<path d="M10.6884 2.28711H8.70633C8.44029 2.28711 8.2075 2.48893 8.28731 2.53602C8.97903 2.93293 9.51777 3.20876 9.51777 3.9084V6.50515V10.7232C9.51777 13.6092 9.61089 14.9009 8.26071 16.1118C7.92815 16.4145 7.84833 16.4549 7.60889 16.5491C7.44261 16.6164 7.42931 16.9931 7.50247 16.9931C7.76187 16.9931 8.2341 16.8451 8.36712 16.798C9.99 16.1858 11.1273 14.9412 11.5065 14.0465C11.8656 13.219 11.9255 12.1359 11.9255 11.3085C11.9255 10.5617 11.8656 9.85537 11.8656 9.23645V6.50515L11.859 3.90167C11.859 3.20203 12.3977 2.92621 13.0894 2.52929C13.1693 2.48893 12.9365 2.28711 12.6704 2.28711H10.6884Z" fill="white"/>
<path d="M87.8483 2.53591C87.9282 2.48882 87.6954 2.21973 87.4293 2.21973H85.4473H83.4652C83.1992 2.21973 82.9664 2.48882 83.0462 2.53591C83.7379 2.93283 84.2767 3.20865 84.2767 3.90829V11.6986C84.2767 12.1493 84.0505 12.4251 83.7047 12.6673C83.6315 12.7211 83.5317 12.7144 83.4852 12.7009C83.3256 12.6471 83.1526 12.5798 82.9797 12.4789C81.849 11.8129 80.4456 9.74763 79.9867 8.42234C80.9378 7.84379 81.7293 6.74723 81.7293 5.34121C81.7293 3.84102 80.8646 2.95973 79.9002 2.59646C79.4546 2.42827 78.5567 2.21973 77.8716 2.21973H74.7256C74.7256 2.21973 73.442 2.21973 72.7369 2.21973C72.4709 2.21973 72.2381 2.48882 72.3179 2.53591C73.0096 2.93283 73.5484 3.20865 73.5484 3.90829V11.6986C73.5484 12.3982 73.0096 12.674 72.3179 13.0709C72.2381 13.118 72.4709 13.3871 72.7369 13.3871H74.719H76.701C76.9671 13.3871 77.1999 13.118 77.12 13.0709C76.4283 12.6673 75.8896 12.3982 75.8896 11.6515V9.14889C76.7343 9.20944 77.6189 9.16907 77.6189 9.16907C77.6189 9.16907 78.4104 10.6087 78.8826 11.3016C79.5145 12.23 80.3192 12.7951 80.8314 13.0508C81.3103 13.2862 82.0685 13.3938 82.7469 13.3938C83.013 13.3938 83.2457 13.3938 83.4386 13.3871H83.4519H85.434H87.416C87.6821 13.3871 87.9149 13.118 87.835 13.0709C87.1433 12.6673 86.6046 12.3982 86.6046 11.6986V3.90829C86.6179 3.20865 87.1566 2.93283 87.8483 2.53591ZM78.7363 7.44015C78.3505 7.92451 77.7918 8.15997 76.9072 8.13979C76.6412 8.13306 76.0093 8.12634 75.9029 8.11288V3.6392C75.9894 3.6392 76.2088 3.61229 76.7542 3.61229C77.8251 3.61229 79.2351 4.0832 79.2351 5.8054C79.2351 6.49832 79.0489 7.04996 78.7363 7.44015Z" fill="white"/>
<path d="M59.7606 3.91529C60.9711 3.92874 61.9355 2.79855 62.022 2.63036C62.1151 2.44873 62.1483 2.20654 62.0486 2.22C61.9488 2.24018 60.858 2.28054 60.7117 2.28054H60.1064C59.7207 2.28054 57.4526 2.28727 57.4526 2.28727C54.5394 2.28727 54.3399 2.28727 54.0805 2.28727C53.269 2.28727 52.0918 2.08545 51.9255 2.08545C51.859 2.08545 51.7991 2.25363 51.7991 2.44873V3.78747C51.7991 5.23385 51.8058 3.77401 51.8058 5.22712C51.8058 5.33476 52.0652 5.24057 52.1716 5.03875C52.4975 4.43329 52.7769 3.88838 55.1513 3.8951C55.2245 3.8951 55.3043 3.8951 55.3708 3.8951V11.7056C55.3708 12.4052 54.8321 12.681 54.1403 13.0779C54.0605 13.125 54.2933 13.3941 54.5594 13.3941H56.5414H58.5301C58.7961 13.3941 59.0289 13.125 58.9491 13.0779C58.2574 12.6743 57.7187 12.4052 57.7187 11.7056V3.8951C58.3439 3.8951 58.8893 3.90183 59.7606 3.91529Z" fill="white"/>
<path d="M16.4882 1.6077C16.6678 1.6077 17.5524 1.55388 17.8982 1.31843C18.3505 1.00897 18.4636 0.430417 18.4702 0.295871C18.4769 0.161324 18.5035 0.0267768 18.3173 0.0267768C18.1975 0.0267768 17.1999 -0.00685992 16.9804 0.00659477C16.7609 0.0133221 16.5547 0.0402315 16.4949 0.208415C16.4483 0.336235 16.2621 0.867695 16.1091 1.21079C15.9362 1.60098 16.2022 1.6077 16.4882 1.6077Z" fill="white"/>
<path d="M19.8204 1.6077C20 1.6077 20.8846 1.55388 21.2305 1.31843C21.6827 1.00897 21.7958 0.430417 21.8025 0.295871C21.8091 0.161324 21.8357 0.0267768 21.6495 0.0267768C21.5298 0.0267768 20.5321 -0.00685992 20.3126 0.00659477C20.0931 0.0133221 19.8869 0.0402315 19.8271 0.208415C19.7805 0.336235 19.5943 0.867695 19.4413 1.21079C19.2684 1.60098 19.5344 1.6077 19.8204 1.6077Z" fill="white"/>
<path d="M18.9292 1.99121C15.424 1.99121 13.2225 4.39287 13.2225 7.81709C13.2225 11.2413 15.4307 13.6161 18.9292 13.6161C22.4277 13.6161 24.6359 11.2413 24.6359 7.81709C24.6359 4.39287 22.4277 1.99121 18.9292 1.99121ZM18.9026 12.5262C16.8806 12.5262 15.8031 10.6762 15.8031 7.73636C15.8031 4.88397 16.8939 3.06759 18.9757 3.06759C21.0176 3.06759 22.0552 4.83688 22.0552 7.71618C22.0552 10.6964 20.9777 12.5262 18.9026 12.5262Z" fill="white"/>
<path d="M66.5048 1.99121C62.9997 1.99121 60.7982 4.39287 60.7982 7.81709C60.7982 11.2413 63.0063 13.6161 66.5048 13.6161C70.0033 13.6161 72.2115 11.2413 72.2115 7.81709C72.2182 4.39287 70.01 1.99121 66.5048 1.99121ZM66.4782 12.5262C64.4563 12.5262 63.3788 10.6762 63.3788 7.73636C63.3788 4.88397 64.4696 3.06759 66.5514 3.06759C68.5933 3.06759 69.6309 4.83688 69.6309 7.71618C69.6309 10.6964 68.56 12.5262 66.4782 12.5262Z" fill="white"/>
<path d="M6.13236 7.63537C5.54706 7.20482 4.17692 6.18899 3.59162 5.75171C3.00632 5.32789 2.67376 5.04534 2.67376 4.4197C2.67376 3.79406 3.37878 3.24242 4.38976 3.24242C6.32524 3.24242 6.71766 4.23806 6.9305 4.95789C7.06352 5.41535 7.38277 5.4288 7.38277 5.33462V2.57641C7.38277 2.38132 7.27635 2.2064 7.19654 2.21986C7.12338 2.23331 6.74426 2.3275 6.33854 2.3275C6.06585 2.3275 4.99501 1.97095 3.93083 1.97095C0.891253 1.97095 0.332557 4.09679 0.332557 4.93771C0.332557 5.77862 0.818091 6.76082 1.68274 7.39319C2.54739 8.02556 3.62488 8.83284 4.33655 9.35084C5.32092 10.0639 5.36748 10.7165 5.36748 10.9318C5.36748 11.1134 5.26771 12.7482 2.64051 11.9947C1.15065 11.5709 0.818091 10.2321 0.691719 9.86885C0.558696 9.47866 0 9.41812 0 9.52575V11.3152V12.9971C0 13.2594 0.226139 13.4478 0.29265 13.394C0.339208 13.3536 0.538743 13.098 0.944463 13.098C1.7426 13.098 2.68041 13.5756 4.56934 13.5756C6.45826 13.5756 7.96807 12.2301 7.96807 10.5349C7.96807 8.84629 6.72431 8.07265 6.13236 7.63537Z" fill="white"/>
<path d="M94.6857 7.63551C94.1004 7.19823 92.7303 6.1824 92.145 5.75185C91.5597 5.3213 91.2271 5.04548 91.2271 4.41311C91.2271 3.78747 91.9322 3.23582 92.9431 3.23582C94.8786 3.23582 95.271 4.23147 95.4839 4.9513C95.6169 5.40876 95.9362 5.42221 95.9362 5.32803V2.56982C95.9362 2.37472 95.8297 2.19981 95.7499 2.21327C95.6701 2.22672 95.2976 2.3209 94.8919 2.3209C94.6126 2.3209 93.5484 1.96436 92.4842 1.96436C89.4446 1.96436 88.8859 4.0902 88.8859 4.93111C88.8859 5.77203 89.3715 6.75422 90.2361 7.38659C91.1008 8.01896 92.1783 8.82625 92.8899 9.34425C93.8743 10.0574 93.9209 10.7099 93.9209 10.9252C93.9209 11.1068 93.8144 12.7416 91.1939 11.9881C89.704 11.5643 89.3715 10.2255 89.2451 9.86226C89.1121 9.4788 88.5534 9.42498 88.5534 9.53262V11.3221V13.0039C88.5534 13.2663 88.7795 13.4547 88.846 13.4008C88.8926 13.3605 89.0921 13.1048 89.4978 13.1048C90.296 13.1048 91.2338 13.5825 93.1227 13.5825C95.0183 13.5825 96.5215 12.237 96.5215 10.5417C96.5215 8.84643 95.2777 8.07278 94.6857 7.63551Z" fill="white"/>
<path d="M49.6508 7.63551C49.0655 7.19823 47.6954 6.1824 47.1101 5.75185C46.5248 5.3213 46.1922 5.04548 46.1922 4.41311C46.1922 3.78747 46.8972 3.23582 47.9082 3.23582C49.8437 3.23582 50.2361 4.23147 50.449 4.9513C50.582 5.40876 50.9012 5.42221 50.9012 5.32803V2.56982C50.9012 2.37472 50.7948 2.19981 50.715 2.21327C50.6418 2.22672 50.2627 2.3209 49.857 2.3209C49.5843 2.3209 48.5135 1.96436 47.4493 1.96436C44.4097 1.96436 43.851 4.0902 43.851 4.93111C43.851 5.77203 44.3366 6.75422 45.2012 7.38659C46.0659 8.01896 47.1433 8.82625 47.855 9.34425C48.8394 10.0574 48.8859 10.7099 48.8859 10.9252C48.8859 11.1068 48.7862 12.7416 46.159 11.9881C44.6691 11.5643 44.3366 10.2255 44.2102 9.86226C44.0772 9.4788 43.5185 9.42498 43.5185 9.53262V11.3221V13.0039C43.5185 13.2663 43.7446 13.4547 43.8111 13.4008C43.8577 13.3605 44.0572 13.1048 44.4629 13.1048C45.2611 13.1048 46.1989 13.5825 48.0878 13.5825C49.9767 13.5825 51.4865 12.237 51.4865 10.5417C51.4865 8.84643 50.2361 8.07278 49.6508 7.63551Z" fill="white"/>
<path d="M100.412 11.6986V3.90829C100.412 3.20865 100.951 2.93283 101.643 2.53591C101.723 2.48882 101.49 2.21973 101.224 2.21973H99.2418H97.2597C96.9937 2.21973 96.7609 2.48882 96.8407 2.53591C97.5324 2.93283 98.0711 3.20865 98.0711 3.90829V11.6986C98.0711 12.3982 97.5324 12.674 96.8407 13.0709C96.7609 13.118 96.9937 13.3871 97.2597 13.3871H99.2418H101.224C101.49 13.3871 101.723 13.118 101.643 13.0709C100.951 12.674 100.412 12.3982 100.412 11.6986Z" fill="white"/>
<path d="M119.987 13.0778C119.036 12.5598 118.723 12.3243 118.424 11.5776L114.859 2.95312C114.859 2.95312 114.819 2.87239 114.772 2.74457L114.586 2.29384C114.586 2.29384 114.546 2.22656 114.493 2.22656H112.757H111.001C110.735 2.22656 110.456 2.52929 110.542 2.56293C111.32 2.89257 112.165 3.4173 111.746 4.37259C111.42 5.11259 108.407 11.6785 108.407 11.6785C108.314 11.8668 108.234 12.035 108.081 12.1628C108.015 12.2301 107.915 12.2032 107.882 12.1763C105.274 9.77464 103.119 7.17789 103.119 7.17789C103.119 7.17789 104.516 5.63733 105.56 4.56095C105.946 4.15731 106.704 3.53839 106.764 3.49803C107.516 2.92621 108.36 2.6302 108.434 2.58311C108.507 2.54275 108.547 2.51584 108.48 2.43511C108.414 2.35438 108.214 2.23329 108.055 2.23329C107.895 2.23329 106.365 2.22656 106.099 2.22656H104.137C103.944 2.22656 103.771 2.37456 103.725 2.42838C103.678 2.48893 103.698 2.53602 103.738 2.56293C103.778 2.58984 103.904 2.65039 104.144 2.85893C104.383 3.07421 104.204 3.69312 103.871 4.06313C103.439 4.5475 100.725 7.62189 100.725 7.62189C100.725 7.62189 100.692 7.66226 100.692 7.72953C100.692 7.7968 100.725 7.83044 100.725 7.83044C100.725 7.83044 103.479 11.3623 105.407 13.2594C105.481 13.3334 105.653 13.3738 105.793 13.3738H108.041H110.323C110.509 13.3738 110.728 13.2258 110.775 13.1316C110.788 13.0979 110.788 13.0778 110.775 13.0643C110.176 12.6741 109.751 12.5261 110.13 11.6583L110.868 10.0034H113.063H115.198L115.883 11.6987C116.156 12.405 115.737 12.6809 115.018 13.071C114.938 13.1181 115.171 13.3872 115.437 13.3872H117.486H119.561C119.834 13.3872 120.067 13.1181 119.987 13.0778ZM113.063 8.78572H111.467L113.149 5.07223L114.679 8.78572H113.063Z" fill="white"/>
</g>
<defs>
<clipPath id="clip0">
<rect width="120" height="17" fill="white"/>
</clipPath>
</defs>
</svg>
