<svg width="18" height="23" viewBox="0 0 18 23" fill="none" xmlns="http://www.w3.org/2000/svg">
<path d="M8.99984 5.15601C10.4618 5.15601 11.6469 4.01644 11.6469 2.61072C11.6469 1.20499 10.4618 0.0654297 8.99984 0.0654297C7.53791 0.0654297 6.35278 1.20499 6.35278 2.61072C6.35278 4.01644 7.53791 5.15601 8.99984 5.15601Z" fill="white"/>
<path d="M16.2797 7.19214H1.72033C0.76459 7.19214 0 7.94884 0 8.86133C0 9.79608 0.76459 10.5305 1.72033 10.5305H3.35625C4.46082 10.5305 5.35625 11.426 5.35625 12.5305V14.7853C5.35625 14.8298 5.35625 14.8965 5.35625 14.9411V21.0614C5.35625 21.8181 6.02527 22.4636 6.86154 22.4636C7.67391 22.4636 8.36682 21.8404 8.36682 21.0614V15.571C8.36682 15.2477 8.62891 14.9856 8.95221 14.9856V14.9856C9.27551 14.9856 9.5376 15.2477 9.5376 15.571V21.0614C9.5376 21.8181 10.2066 22.4636 11.0429 22.4636C11.8553 22.4636 12.5482 21.8404 12.5482 21.0614V12.5305C12.5482 11.426 13.4436 10.5305 14.5482 10.5305H16.2797C17.2354 10.5305 18 9.77383 18 8.86133C18 7.94884 17.2354 7.19214 16.2797 7.19214Z" fill="white"/>
</svg>
