<svg width="24" height="18" viewBox="0 0 24 18" fill="none" xmlns="http://www.w3.org/2000/svg">
<path fill-rule="evenodd" clip-rule="evenodd" d="M14.4851 1.69765C13.9441 1.43291 13.2968 1.49019 12.8132 1.84562L5.78912 6.22219H2.59637C1.71472 6.22219 1 6.922 1 7.78525V10.9114C1 11.7746 1.71472 12.4744 2.59637 12.4744H5.78912L12.8132 16.851C13.2969 17.2062 13.9441 17.2634 14.4849 16.9986C15.0257 16.7338 15.3673 16.1926 15.3673 15.6006V3.09607C15.3675 2.50393 15.026 1.96253 14.4851 1.69765Z" stroke="white" stroke-width="1.5" stroke-linecap="round" stroke-linejoin="round"/>
<path d="M22.1021 13.1443C23.2993 10.9654 23.2993 8.17776 22.1021 5.99878" stroke="white" stroke-width="1.5" stroke-linecap="round" stroke-linejoin="round"/>
<path d="M18.9592 11.8043C19.8954 10.5033 19.8954 8.63941 18.9592 7.33838" stroke="white" stroke-width="1.5" stroke-linecap="round" stroke-linejoin="round"/>
<path d="M5.93872 6.44531V12.6976" stroke="white" stroke-width="1.5" stroke-linecap="round" stroke-linejoin="round"/>
</svg>
