<svg width="22" height="22" viewBox="0 0 22 22" fill="none" xmlns="http://www.w3.org/2000/svg">
<path fill-rule="evenodd" clip-rule="evenodd" d="M11 0C4.92487 0 0 4.92487 0 11C0 17.0751 4.92487 22 11 22C17.0751 22 22 17.0751 22 11C22 4.92487 17.0751 0 11 0ZM8.20577 6.75953C8.5202 6.56508 8.91288 6.54724 9.24365 6.71237L16.4613 10.3204C16.8222 10.5018 17.05 10.8711 17.05 11.275C17.05 11.6789 16.8222 12.0483 16.4613 12.2296L9.24365 15.8376C8.91288 16.0028 8.5202 15.9849 8.20577 15.7905C7.89134 15.596 7.69996 15.2527 7.69995 14.883V7.66701C7.69996 7.29732 7.89134 6.95398 8.20577 6.75953Z" fill="white"/>
</svg>
